<?xml version="1.0" encoding="utf-8"?>
<!-- Generator: Adobe Illustrator 15.1.0, SVG Export Plug-In  -->
<!DOCTYPE svg PUBLIC "-//W3C//DTD SVG 1.1//EN" "http://www.w3.org/Graphics/SVG/1.1/DTD/svg11.dtd" [
	<!ENTITY ns_flows "http://ns.adobe.com/Flows/1.0/">
]>
<svg version="1.1"
	 xmlns="http://www.w3.org/2000/svg" xmlns:xlink="http://www.w3.org/1999/xlink" xmlns:a="http://ns.adobe.com/AdobeSVGViewerExtensions/3.0/"
	 x="0px" y="0px" width="179px" height="153px" viewBox="-0.5 -0.5 179 153" enable-background="new -0.5 -0.5 179 153"
	 xml:space="preserve">
<defs>
</defs>
<polygon fill="#FFFFFF" points="0,0 178,0 178,152 0,152 0,0 "/>
<polygon fill="#FFFF00" points="6.209,85.073 171.791,85.073 171.791,145.839 6.209,145.839 6.209,85.073 "/>
<polygon points="6.209,6.161 171.791,6.161 171.791,78.911 6.209,78.911 6.209,6.161 "/>
<path fill-rule="evenodd" clip-rule="evenodd" fill="#FFFF00" d="M49.889,31.819h-8.294l-4.315,13.515
	c-0.729,2.28-1.513,4.95-1.85,6.396c-0.336-1.39-1.121-4.171-1.85-6.396l-4.315-13.515h-8.52l10.593,29.199h7.958L49.889,31.819z"/>
<path fill-rule="evenodd" clip-rule="evenodd" fill="#FFFF00" d="M93.67,46.446c0,1.112-0.057,1.891-0.111,2.447H75.96
	c1.44,9.127,11.771,5.893,14.173,3.91l0.133,0.035l1.188,5.859c-1.875,1.438-5.199,2.933-9.439,2.933
	c-8.463,0-13.844-5.951-13.844-15.184c0-8.955,5.662-15.239,13.114-15.239C89.131,31.207,93.67,38.103,93.67,46.446z M86.16,43.108
	c-0.225-2.614-1.794-5.228-5.268-5.228c-2.804,0-4.539,2.281-4.82,5.228H86.16z"/>
<rect x="54.692" y="31.819" fill-rule="evenodd" clip-rule="evenodd" fill="#FFFF00" width="7.961" height="29.199"/>
<path fill-rule="evenodd" clip-rule="evenodd" fill="#FFFF00" d="M65.402,20.714c0-3.635-3.066-6.678-6.729-6.678
	s-6.73,3.043-6.73,6.678c0,3.634,3.068,6.679,6.73,6.679S65.402,24.348,65.402,20.714z"/>
<path fill-rule="evenodd" clip-rule="evenodd" fill="#FFFF00" d="M115.459,51.952V40.94c-1.176-1.613-2.969-2.504-5.212-2.504
	c-2.97,0-4.595,2.559-4.595,7.453c0,6.007,2.018,8.509,5.043,8.509C113.106,54.398,114.339,53.398,115.459,51.952z M123.305,56.008
	c0.448,14.076-8.156,16.65-18.557,16.487l-1.219-6.406l0.066-0.078c5.945,0.002,12.426,0.178,11.975-6.889
	c-1.457,1.279-3.418,2.447-6.221,2.447c-6.277,0-11.434-4.672-11.434-15.573c0-8.732,4.148-14.85,11.434-14.85
	c2.577,0,4.82,1,6.221,2.28l0.027-1.669h7.707V56.008z"/>
<path fill-rule="evenodd" clip-rule="evenodd" fill="#FFFF00" d="M145.906,52.452v-3.671c-1.346-0.834-2.635-1.224-5.381-1.224
	c-2.915,0-4.484,1.335-4.484,3.672c0,2.057,1.178,3.893,4.484,3.893C143.047,55.122,145.064,53.843,145.906,52.452z M153.676,61.106
	h-7.666l-0.068-1.947c-1.402,1.446-3.867,2.559-6.613,2.559c-5.492,0-10.984-3.337-10.984-10.4c0-6.453,5.268-9.678,11.938-9.678
	c2.689,0,4.427,0.557,5.66,1.168v-1.446c0-3.342-4.393-6.144-13.09-1.664l-0.111-0.034l-1.102-5.865
	c4.884-3.149,22.037-5.844,22.037,8.124V61.106z"/>
</svg>
