<?xml version="1.0" encoding="UTF-8" standalone="no"?>
<!-- Created with Inkscape (http://www.inkscape.org/) -->

<svg
   xmlns:dc="http://purl.org/dc/elements/1.1/"
   xmlns:cc="http://creativecommons.org/ns#"
   xmlns:rdf="http://www.w3.org/1999/02/22-rdf-syntax-ns#"
   xmlns:svg="http://www.w3.org/2000/svg"
   xmlns="http://www.w3.org/2000/svg"
   xmlns:sodipodi="http://sodipodi.sourceforge.net/DTD/sodipodi-0.dtd"
   xmlns:inkscape="http://www.inkscape.org/namespaces/inkscape"
   width="297mm"
   height="210mm"
   viewBox="0 0 297 210"
   version="1.1"
   id="svg8"
   inkscape:version="0.92.2 (5c3e80d, 2017-08-06)"
   sodipodi:docname="empty dashboard.svg"
   inkscape:export-filename="C:\Users\reger\Desktop\dashboard-empty.png"
   inkscape:export-xdpi="102.56762"
   inkscape:export-ydpi="102.56762">
  <defs
     id="defs2" />
  <sodipodi:namedview
     id="base"
     pagecolor="#ffffff"
     bordercolor="#666666"
     borderopacity="1.0"
     inkscape:pageopacity="0.0"
     inkscape:pageshadow="2"
     inkscape:zoom="0.7"
     inkscape:cx="577.92231"
     inkscape:cy="441.60895"
     inkscape:document-units="mm"
     inkscape:current-layer="layer1"
     showgrid="false"
     showguides="true"
     inkscape:snap-bbox="true"
     inkscape:snap-bbox-midpoints="true"
     inkscape:window-width="1920"
     inkscape:window-height="1017"
     inkscape:window-x="-8"
     inkscape:window-y="-8"
     inkscape:window-maximized="1"
     inkscape:snap-global="true"
     inkscape:bbox-nodes="true"
     inkscape:snap-page="true" />
  <metadata
     id="metadata5">
    <rdf:RDF>
      <cc:Work
         rdf:about="">
        <dc:format>image/svg+xml</dc:format>
        <dc:type
           rdf:resource="http://purl.org/dc/dcmitype/StillImage" />
        <dc:title />
      </cc:Work>
    </rdf:RDF>
  </metadata>
  <g
     inkscape:label="Ebene 1"
     inkscape:groupmode="layer"
     id="layer1"
     transform="translate(0,-87)">
    <rect
       style="fill:#ffffff;fill-opacity:1;stroke:none;stroke-width:1.20000005;stroke-miterlimit:4;stroke-dasharray:none;stroke-opacity:1"
       id="rect823"
       width="297"
       height="210"
       x="0"
       y="87" />
    <path
       style="fill:#cccccc;stroke:#cccccc;stroke-width:1.37507391;stroke-linecap:butt;stroke-linejoin:miter;stroke-miterlimit:4;stroke-dasharray:none;stroke-opacity:1"
       d="M 125.80875,206.93543 19.964938,276.60201"
       id="path4596"
       inkscape:connector-curvature="0" />
    <path
       style="fill:#cccccc;stroke:#cccccc;stroke-width:1.37507391;stroke-linecap:butt;stroke-linejoin:miter;stroke-miterlimit:4;stroke-dasharray:none;stroke-opacity:1"
       d="m 277.03506,107.398 -105.8438,69.66658"
       id="path34"
       inkscape:connector-curvature="0" />
    <path
       style="fill:#cccccc;fill-opacity:1;stroke:#cccccc;stroke-width:1.37507391;stroke-linecap:butt;stroke-linejoin:miter;stroke-miterlimit:4;stroke-dasharray:none;stroke-opacity:1"
       d="m 171.26613,206.93523 105.54095,69.23786"
       id="path4591"
       inkscape:connector-curvature="0" />
    <path
       style="fill:#cccccc;fill-opacity:1;stroke:#cccccc;stroke-width:1.37507391;stroke-linecap:butt;stroke-linejoin:miter;stroke-miterlimit:4;stroke-dasharray:none;stroke-opacity:1"
       d="M 20.192914,107.82691 125.73387,177.06477"
       id="path32"
       inkscape:connector-curvature="0" />
    <g
       style="clip-rule:evenodd;fill-rule:nonzero;image-rendering:optimizeQuality;shape-rendering:geometricPrecision;text-rendering:geometricPrecision;fill:#cccccc;stroke:#cccccc"
       id="g4540"
       transform="matrix(0.00342541,0,0,0.00342541,130.96192,174.46193)">
      <path
         d="M 5048,6149 C 3676,5601 3179,4764 1600,6080 v 617 l 115,44 c 1294,498 2300,242 3333,-592 z"
         id="curve3"
         inkscape:connector-curvature="0"
         style="fill:#cccccc;stroke:#cccccc" />
      <path
         d="M 1600,7040 C 5760,8640 6720,2560 8640,5440 V 8000 H 1600 Z"
         id="curve2"
         inkscape:connector-curvature="0"
         style="fill:#cccccc;stroke:#cccccc" />
      <path
         d="m 1600,2240 h 7040 v 2668 c -278,-323 -633,-584 -1077,-574 -481,11 -904,341 -1246,647 -338,303 -652,629 -990,931 -244,-88 -482,-196 -728,-320 -393,-199 -802,-438 -1241,-511 -665,-109 -1249,198 -1758,589 z m 2880,320 c -707,0 -1280,573 -1280,1280 0,707 573,1280 1280,1280 707,0 1280,-573 1280,-1280 0,-707 -573,-1280 -1280,-1280 z"
         id="curve1"
         inkscape:connector-curvature="0"
         style="fill:#cccccc;stroke:#cccccc" />
      <path
         d="M 640,1280 H 9600 V 8960 H 640 Z m 640,640 V 8320 H 8960 V 1920 Z"
         id="curve0"
         inkscape:connector-curvature="0"
         style="fill:#cccccc;stroke:#cccccc" />
    </g>
  </g>
</svg>
